solid 468B
facet normal -0.6961595416069031 -0.7178871035575867 -0
  outer loop
    vertex 185.8088531494141 146.8979949951172 28
    vertex 139.7069396972656 191.6045837402344 -218
    vertex 185.8088531494141 146.8979949951172 -218
  endloop
endfacet
facet normal -0.6961595416069031 -0.7178871035575867 -0
  outer loop
    vertex 139.7069396972656 191.6045837402344 -218
    vertex 185.8088531494141 146.8979949951172 28
    vertex 139.7069396972656 191.6045837402344 28
  endloop
endfacet
facet normal 0.01536367554217577 -0.9998819828033447 0
  outer loop
    vertex 21.3262825012207 238.5218811035156 28
    vertex -42.88502502441406 237.5352478027344 -218
    vertex 21.3262825012207 238.5218811035156 -218
  endloop
endfacet
facet normal 0.01536367554217577 -0.9998819828033447 0
  outer loop
    vertex -42.88502502441406 237.5352478027344 -218
    vertex 21.3262825012207 238.5218811035156 28
    vertex -42.88502502441406 237.5352478027344 28
  endloop
endfacet
facet normal -0.5132462978363037 0.8582413792610168 0
  outer loop
    vertex 90.58853912353516 -231.6392974853516 28
    vertex 145.7038421630859 -198.6791839599609 -218
    vertex 90.58853912353516 -231.6392974853516 -218
  endloop
endfacet
facet normal -0.5132462978363037 0.8582413792610168 0
  outer loop
    vertex 145.7038421630859 -198.6791839599609 -218
    vertex 90.58853912353516 -231.6392974853516 28
    vertex 145.7038421630859 -198.6791839599609 28
  endloop
endfacet
facet normal 0.8736050128936768 -0.4866356551647186 0
  outer loop
    vertex -204.4749145507813 140.9010925292969 -218
    vertex -235.7261199951172 84.79915618896484 28
    vertex -235.7261199951172 84.79915618896484 -218
  endloop
endfacet
facet normal 0.8736050128936768 -0.4866356551647186 0
  outer loop
    vertex -235.7261199951172 84.79915618896484 28
    vertex -204.4749145507813 140.9010925292969 -218
    vertex -204.4749145507813 140.9010925292969 28
  endloop
endfacet
facet normal -0.9998819828033447 -0.01536367554217577 -0
  outer loop
    vertex 236.3410949707031 30.01469421386719 28
    vertex 237.3277282714844 -34.19661331176758 -218
    vertex 237.3277282714844 -34.19661331176758 28
  endloop
endfacet
facet normal -0.9998819828033447 -0.01536367554217577 -0
  outer loop
    vertex 237.3277282714844 -34.19661331176758 -218
    vertex 236.3410949707031 30.01469421386719 28
    vertex 236.3410949707031 30.01469421386719 -218
  endloop
endfacet
facet normal -0.8582413792610168 -0.5132462978363037 -0
  outer loop
    vertex 185.8088531494141 146.8979949951172 28
    vertex 218.7689666748047 91.78269195556641 -218
    vertex 218.7689666748047 91.78269195556641 28
  endloop
endfacet
facet normal -0.8582413792610168 -0.5132462978363037 -0
  outer loop
    vertex 218.7689666748047 91.78269195556641 -218
    vertex 185.8088531494141 146.8979949951172 28
    vertex 185.8088531494141 146.8979949951172 -218
  endloop
endfacet
facet normal 0.9618353843688965 0.2736286818981171 0
  outer loop
    vertex -250.4055633544922 -41.69087219238281 -218
    vertex -232.8334350585938 -103.458869934082 28
    vertex -232.8334350585938 -103.458869934082 -218
  endloop
endfacet
facet normal 0.9618353843688965 0.2736286818981171 0
  outer loop
    vertex -232.8334350585938 -103.458869934082 28
    vertex -250.4055633544922 -41.69087219238281 -218
    vertex -250.4055633544922 -41.69087219238281 28
  endloop
endfacet
facet normal 0.7178871035575867 -0.6961595416069031 0
  outer loop
    vertex -159.7683258056641 187.0030059814453 -218
    vertex -204.4749145507813 140.9010925292969 28
    vertex -204.4749145507813 140.9010925292969 -218
  endloop
endfacet
facet normal 0.7178871035575867 -0.6961595416069031 0
  outer loop
    vertex -204.4749145507813 140.9010925292969 28
    vertex -159.7683258056641 187.0030059814453 -218
    vertex -159.7683258056641 187.0030059814453 28
  endloop
endfacet
facet normal -0.4866356551647186 -0.8736050128936768 -0
  outer loop
    vertex 139.7069396972656 191.6045837402344 28
    vertex 83.60500335693359 222.8557891845703 -218
    vertex 139.7069396972656 191.6045837402344 -218
  endloop
endfacet
facet normal -0.4866356551647186 -0.8736050128936768 -0
  outer loop
    vertex 83.60500335693359 222.8557891845703 -218
    vertex 139.7069396972656 191.6045837402344 28
    vertex 83.60500335693359 222.8557891845703 28
  endloop
endfacet
facet normal 0.9998819828033447 0.01536367554217577 0
  outer loop
    vertex -251.3922119140625 22.52043342590332 -218
    vertex -250.4055633544922 -41.69087219238281 28
    vertex -250.4055633544922 -41.69087219238281 -218
  endloop
endfacet
facet normal 0.9998819828033447 0.01536367554217577 0
  outer loop
    vertex -250.4055633544922 -41.69087219238281 28
    vertex -251.3922119140625 22.52043342590332 -218
    vertex -251.3922119140625 22.52043342590332 28
  endloop
endfacet
facet normal 0.5132462978363037 -0.8582413792610168 0
  outer loop
    vertex -104.6530227661133 219.9631195068359 28
    vertex -159.7683258056641 187.0030059814453 -218
    vertex -104.6530227661133 219.9631195068359 -218
  endloop
endfacet
facet normal 0.5132462978363037 -0.8582413792610168 0
  outer loop
    vertex -159.7683258056641 187.0030059814453 -218
    vertex -104.6530227661133 219.9631195068359 28
    vertex -159.7683258056641 187.0030059814453 28
  endloop
endfacet
facet normal 0.9697882533073425 -0.2439483255147934 0
  outer loop
    vertex -235.7261199951172 84.79915618896484 -218
    vertex -251.3922119140625 22.52043342590332 28
    vertex -251.3922119140625 22.52043342590332 -218
  endloop
endfacet
facet normal 0.9697882533073425 -0.2439483255147934 0
  outer loop
    vertex -251.3922119140625 22.52043342590332 28
    vertex -235.7261199951172 84.79915618896484 -218
    vertex -235.7261199951172 84.79915618896484 28
  endloop
endfacet
facet normal -0.9697882533073425 0.2439483255147934 0
  outer loop
    vertex 237.3277282714844 -34.19661331176758 28
    vertex 221.6616363525391 -96.47533416748047 -218
    vertex 221.6616363525391 -96.47533416748047 28
  endloop
endfacet
facet normal -0.9697882533073425 0.2439483255147934 0
  outer loop
    vertex 221.6616363525391 -96.47533416748047 -218
    vertex 237.3277282714844 -34.19661331176758 28
    vertex 237.3277282714844 -34.19661331176758 -218
  endloop
endfacet
facet normal 0.6961595416069031 0.7178871035575867 0
  outer loop
    vertex -199.8733367919922 -158.5741729736328 28
    vertex -153.7714233398438 -203.28076171875 -218
    vertex -199.8733367919922 -158.5741729736328 -218
  endloop
endfacet
facet normal 0.6961595416069031 0.7178871035575867 0
  outer loop
    vertex -153.7714233398438 -203.28076171875 -218
    vertex -199.8733367919922 -158.5741729736328 28
    vertex -153.7714233398438 -203.28076171875 28
  endloop
endfacet
facet normal 0 0 1
  outer loop
    vertex -250.4055633544922 -41.69087219238281 -218
    vertex -235.7261199951172 84.79915618896484 -218
    vertex -251.3922119140625 22.52043342590332 -218
  endloop
endfacet
facet normal 0 0 1
  outer loop
    vertex -235.7261199951172 84.79915618896484 -218
    vertex -250.4055633544922 -41.69087219238281 -218
    vertex -232.8334350585938 -103.458869934082 -218
  endloop
endfacet
facet normal 0 0 1
  outer loop
    vertex -235.7261199951172 84.79915618896484 -218
    vertex -232.8334350585938 -103.458869934082 -218
    vertex -204.4749145507813 140.9010925292969 -218
  endloop
endfacet
facet normal 0 0 1
  outer loop
    vertex -204.4749145507813 140.9010925292969 -218
    vertex -232.8334350585938 -103.458869934082 -218
    vertex -199.8733367919922 -158.5741729736328 -218
  endloop
endfacet
facet normal 0 0 1
  outer loop
    vertex -204.4749145507813 140.9010925292969 -218
    vertex -199.8733367919922 -158.5741729736328 -218
    vertex -159.7683258056641 187.0030059814453 -218
  endloop
endfacet
facet normal 0 0 1
  outer loop
    vertex -159.7683258056641 187.0030059814453 -218
    vertex -199.8733367919922 -158.5741729736328 -218
    vertex -153.7714233398438 -203.28076171875 -218
  endloop
endfacet
facet normal 0 0 1
  outer loop
    vertex -159.7683258056641 187.0030059814453 -218
    vertex -153.7714233398438 -203.28076171875 -218
    vertex -104.6530227661133 219.9631195068359 -218
  endloop
endfacet
facet normal 0 0 1
  outer loop
    vertex -104.6530227661133 219.9631195068359 -218
    vertex -153.7714233398438 -203.28076171875 -218
    vertex -97.66948699951172 -234.5319671630859 -218
  endloop
endfacet
facet normal 0 0 1
  outer loop
    vertex -104.6530227661133 219.9631195068359 -218
    vertex -97.66948699951172 -234.5319671630859 -218
    vertex -42.88502502441406 237.5352478027344 -218
  endloop
endfacet
facet normal 0 0 1
  outer loop
    vertex -42.88502502441406 237.5352478027344 -218
    vertex -97.66948699951172 -234.5319671630859 -218
    vertex -35.39076232910156 -250.1980590820313 -218
  endloop
endfacet
facet normal 0 0 1
  outer loop
    vertex -42.88502502441406 237.5352478027344 -218
    vertex -35.39076232910156 -250.1980590820313 -218
    vertex 21.3262825012207 238.5218811035156 -218
  endloop
endfacet
facet normal 0 0 1
  outer loop
    vertex 21.3262825012207 238.5218811035156 -218
    vertex -35.39076232910156 -250.1980590820313 -218
    vertex 28.82054328918457 -249.21142578125 -218
  endloop
endfacet
facet normal 0 0 1
  outer loop
    vertex 21.3262825012207 238.5218811035156 -218
    vertex 28.82054328918457 -249.21142578125 -218
    vertex 83.60500335693359 222.8557891845703 -218
  endloop
endfacet
facet normal 0 0 1
  outer loop
    vertex 83.60500335693359 222.8557891845703 -218
    vertex 28.82054328918457 -249.21142578125 -218
    vertex 90.58853912353516 -231.6392974853516 -218
  endloop
endfacet
facet normal 0 0 1
  outer loop
    vertex 83.60500335693359 222.8557891845703 -218
    vertex 90.58853912353516 -231.6392974853516 -218
    vertex 139.7069396972656 191.6045837402344 -218
  endloop
endfacet
facet normal 0 0 1
  outer loop
    vertex 139.7069396972656 191.6045837402344 -218
    vertex 90.58853912353516 -231.6392974853516 -218
    vertex 145.7038421630859 -198.6791839599609 -218
  endloop
endfacet
facet normal 0 0 1
  outer loop
    vertex 139.7069396972656 191.6045837402344 -218
    vertex 145.7038421630859 -198.6791839599609 -218
    vertex 185.8088531494141 146.8979949951172 -218
  endloop
endfacet
facet normal 0 0 1
  outer loop
    vertex 185.8088531494141 146.8979949951172 -218
    vertex 145.7038421630859 -198.6791839599609 -218
    vertex 190.4104309082031 -152.5772705078125 -218
  endloop
endfacet
facet normal 0 0 1
  outer loop
    vertex 185.8088531494141 146.8979949951172 -218
    vertex 190.4104309082031 -152.5772705078125 -218
    vertex 218.7689666748047 91.78269195556641 -218
  endloop
endfacet
facet normal 0 0 1
  outer loop
    vertex 218.7689666748047 91.78269195556641 -218
    vertex 190.4104309082031 -152.5772705078125 -218
    vertex 221.6616363525391 -96.47533416748047 -218
  endloop
endfacet
facet normal 0 0 1
  outer loop
    vertex 218.7689666748047 91.78269195556641 -218
    vertex 221.6616363525391 -96.47533416748047 -218
    vertex 236.3410949707031 30.01469421386719 -218
  endloop
endfacet
facet normal 0 0 1
  outer loop
    vertex 236.3410949707031 30.01469421386719 -218
    vertex 221.6616363525391 -96.47533416748047 -218
    vertex 237.3277282714844 -34.19661331176758 -218
  endloop
endfacet
facet normal 0.8582413792610168 0.5132462978363037 0
  outer loop
    vertex -232.8334350585938 -103.458869934082 -218
    vertex -199.8733367919922 -158.5741729736328 28
    vertex -199.8733367919922 -158.5741729736328 -218
  endloop
endfacet
facet normal 0.8582413792610168 0.5132462978363037 0
  outer loop
    vertex -199.8733367919922 -158.5741729736328 28
    vertex -232.8334350585938 -103.458869934082 -218
    vertex -232.8334350585938 -103.458869934082 28
  endloop
endfacet
facet normal -0.7178871035575867 0.6961595416069031 0
  outer loop
    vertex 190.4104309082031 -152.5772705078125 28
    vertex 145.7038421630859 -198.6791839599609 -218
    vertex 145.7038421630859 -198.6791839599609 28
  endloop
endfacet
facet normal -0.7178871035575867 0.6961595416069031 0
  outer loop
    vertex 145.7038421630859 -198.6791839599609 -218
    vertex 190.4104309082031 -152.5772705078125 28
    vertex 190.4104309082031 -152.5772705078125 -218
  endloop
endfacet
facet normal -0.9618353843688965 -0.2736286818981171 -0
  outer loop
    vertex 218.7689666748047 91.78269195556641 28
    vertex 236.3410949707031 30.01469421386719 -218
    vertex 236.3410949707031 30.01469421386719 28
  endloop
endfacet
facet normal -0.9618353843688965 -0.2736286818981171 -0
  outer loop
    vertex 236.3410949707031 30.01469421386719 -218
    vertex 218.7689666748047 91.78269195556641 28
    vertex 218.7689666748047 91.78269195556641 -218
  endloop
endfacet
facet normal -0.2439483255147934 -0.9697882533073425 -0
  outer loop
    vertex 83.60500335693359 222.8557891845703 28
    vertex 21.3262825012207 238.5218811035156 -218
    vertex 83.60500335693359 222.8557891845703 -218
  endloop
endfacet
facet normal -0.2439483255147934 -0.9697882533073425 -0
  outer loop
    vertex 21.3262825012207 238.5218811035156 -218
    vertex 83.60500335693359 222.8557891845703 28
    vertex 21.3262825012207 238.5218811035156 28
  endloop
endfacet
facet normal 0.2736286818981171 -0.9618353843688965 0
  outer loop
    vertex -42.88502502441406 237.5352478027344 28
    vertex -104.6530227661133 219.9631195068359 -218
    vertex -42.88502502441406 237.5352478027344 -218
  endloop
endfacet
facet normal 0.2736286818981171 -0.9618353843688965 0
  outer loop
    vertex -104.6530227661133 219.9631195068359 -218
    vertex -42.88502502441406 237.5352478027344 28
    vertex -104.6530227661133 219.9631195068359 28
  endloop
endfacet
facet normal -0.8736050128936768 0.4866356551647186 0
  outer loop
    vertex 221.6616363525391 -96.47533416748047 28
    vertex 190.4104309082031 -152.5772705078125 -218
    vertex 190.4104309082031 -152.5772705078125 28
  endloop
endfacet
facet normal -0.8736050128936768 0.4866356551647186 0
  outer loop
    vertex 190.4104309082031 -152.5772705078125 -218
    vertex 221.6616363525391 -96.47533416748047 28
    vertex 221.6616363525391 -96.47533416748047 -218
  endloop
endfacet
facet normal 0 0 1
  outer loop
    vertex -274.5300598144531 -158.5 28
    vertex -250.4055633544922 -41.69087219238281 28
    vertex -274.5300598144531 158.5 28
  endloop
endfacet
facet normal 0 0 1
  outer loop
    vertex -250.4055633544922 -41.69087219238281 28
    vertex -274.5300598144531 -158.5 28
    vertex -232.8334350585938 -103.458869934082 28
  endloop
endfacet
facet normal 0 0 1
  outer loop
    vertex -232.8334350585938 -103.458869934082 28
    vertex -274.5300598144531 -158.5 28
    vertex -199.8733367919922 -158.5741729736328 28
  endloop
endfacet
facet normal 0 0 1
  outer loop
    vertex -199.8733367919922 -158.5741729736328 28
    vertex -274.5300598144531 -158.5 28
    vertex -153.7714233398438 -203.28076171875 28
  endloop
endfacet
facet normal 0 0 1
  outer loop
    vertex -153.7714233398438 -203.28076171875 28
    vertex -274.5300598144531 -158.5 28
    vertex -3.882130212998561e-14 -317 28
  endloop
endfacet
facet normal 0 0 1
  outer loop
    vertex -274.5300598144531 158.5 28
    vertex -250.4055633544922 -41.69087219238281 28
    vertex -251.3922119140625 22.52043342590332 28
  endloop
endfacet
facet normal 0 0 1
  outer loop
    vertex -153.7714233398438 -203.28076171875 28
    vertex -3.882130212998561e-14 -317 28
    vertex -97.66948699951172 -234.5319671630859 28
  endloop
endfacet
facet normal 0 0 1
  outer loop
    vertex -97.66948699951172 -234.5319671630859 28
    vertex -3.882130212998561e-14 -317 28
    vertex -35.39076232910156 -250.1980590820313 28
  endloop
endfacet
facet normal 0 0 1
  outer loop
    vertex -35.39076232910156 -250.1980590820313 28
    vertex -3.882130212998561e-14 -317 28
    vertex 28.82054328918457 -249.21142578125 28
  endloop
endfacet
facet normal 0 0 1
  outer loop
    vertex 28.82054328918457 -249.21142578125 28
    vertex -3.882130212998561e-14 -317 28
    vertex 90.58853912353516 -231.6392974853516 28
  endloop
endfacet
facet normal 0 0 1
  outer loop
    vertex 90.58853912353516 -231.6392974853516 28
    vertex -3.882130212998561e-14 -317 28
    vertex 274.5300598144531 -158.5 28
  endloop
endfacet
facet normal 0 0 1
  outer loop
    vertex 90.58853912353516 -231.6392974853516 28
    vertex 274.5300598144531 -158.5 28
    vertex 145.7038421630859 -198.6791839599609 28
  endloop
endfacet
facet normal 0 0 1
  outer loop
    vertex 145.7038421630859 -198.6791839599609 28
    vertex 274.5300598144531 -158.5 28
    vertex 190.4104309082031 -152.5772705078125 28
  endloop
endfacet
facet normal 0 0 1
  outer loop
    vertex 190.4104309082031 -152.5772705078125 28
    vertex 274.5300598144531 -158.5 28
    vertex 221.6616363525391 -96.47533416748047 28
  endloop
endfacet
facet normal 0 0 1
  outer loop
    vertex 221.6616363525391 -96.47533416748047 28
    vertex 274.5300598144531 -158.5 28
    vertex 237.3277282714844 -34.19661331176758 28
  endloop
endfacet
facet normal 0 0 1
  outer loop
    vertex -274.5300598144531 158.5 28
    vertex -159.7683258056641 187.0030059814453 28
    vertex 0 317 28
  endloop
endfacet
facet normal 0 0 1
  outer loop
    vertex -159.7683258056641 187.0030059814453 28
    vertex -274.5300598144531 158.5 28
    vertex -204.4749145507813 140.9010925292969 28
  endloop
endfacet
facet normal 0 0 1
  outer loop
    vertex -204.4749145507813 140.9010925292969 28
    vertex -274.5300598144531 158.5 28
    vertex -235.7261199951172 84.79915618896484 28
  endloop
endfacet
facet normal 0 0 1
  outer loop
    vertex -235.7261199951172 84.79915618896484 28
    vertex -274.5300598144531 158.5 28
    vertex -251.3922119140625 22.52043342590332 28
  endloop
endfacet
facet normal 0 0 1
  outer loop
    vertex 0 317 28
    vertex -159.7683258056641 187.0030059814453 28
    vertex -104.6530227661133 219.9631195068359 28
  endloop
endfacet
facet normal 0 0 1
  outer loop
    vertex 0 317 28
    vertex -104.6530227661133 219.9631195068359 28
    vertex -42.88502502441406 237.5352478027344 28
  endloop
endfacet
facet normal 0 0 1
  outer loop
    vertex 0 317 28
    vertex -42.88502502441406 237.5352478027344 28
    vertex 21.3262825012207 238.5218811035156 28
  endloop
endfacet
facet normal 0 0 1
  outer loop
    vertex 0 317 28
    vertex 21.3262825012207 238.5218811035156 28
    vertex 83.60500335693359 222.8557891845703 28
  endloop
endfacet
facet normal 0 0 1
  outer loop
    vertex 0 317 28
    vertex 83.60500335693359 222.8557891845703 28
    vertex 274.5300598144531 158.5 28
  endloop
endfacet
facet normal 0 0 1
  outer loop
    vertex 274.5300598144531 158.5 28
    vertex 83.60500335693359 222.8557891845703 28
    vertex 139.7069396972656 191.6045837402344 28
  endloop
endfacet
facet normal 0 0 1
  outer loop
    vertex 274.5300598144531 158.5 28
    vertex 139.7069396972656 191.6045837402344 28
    vertex 185.8088531494141 146.8979949951172 28
  endloop
endfacet
facet normal 0 0 1
  outer loop
    vertex 274.5300598144531 158.5 28
    vertex 185.8088531494141 146.8979949951172 28
    vertex 218.7689666748047 91.78269195556641 28
  endloop
endfacet
facet normal 0 0 1
  outer loop
    vertex 274.5300598144531 158.5 28
    vertex 218.7689666748047 91.78269195556641 28
    vertex 236.3410949707031 30.01469421386719 28
  endloop
endfacet
facet normal 0 0 1
  outer loop
    vertex 274.5300598144531 158.5 28
    vertex 236.3410949707031 30.01469421386719 28
    vertex 237.3277282714844 -34.19661331176758 28
  endloop
endfacet
facet normal 0 0 1
  outer loop
    vertex 274.5300598144531 158.5 28
    vertex 237.3277282714844 -34.19661331176758 28
    vertex 274.5300598144531 -158.5 28
  endloop
endfacet
facet normal 0.5 -0.8660253882408142 0
  outer loop
    vertex 274.5300598144531 -158.5 28
    vertex -3.882130212998561e-14 -317 0
    vertex 274.5300598144531 -158.5 0
  endloop
endfacet
facet normal 0.5 -0.8660253882408142 0
  outer loop
    vertex -3.882130212998561e-14 -317 0
    vertex 274.5300598144531 -158.5 28
    vertex -3.882130212998561e-14 -317 28
  endloop
endfacet
facet normal -0.5 -0.8660253882408142 -0
  outer loop
    vertex -3.882130212998561e-14 -317 28
    vertex -274.5300598144531 -158.5 0
    vertex -3.882130212998561e-14 -317 0
  endloop
endfacet
facet normal -0.5 -0.8660253882408142 -0
  outer loop
    vertex -274.5300598144531 -158.5 0
    vertex -3.882130212998561e-14 -317 28
    vertex -274.5300598144531 -158.5 28
  endloop
endfacet
facet normal -1 1.13866149408473e-16 0
  outer loop
    vertex -274.5300598144531 158.5 28
    vertex -274.5300598144531 -158.5 0
    vertex -274.5300598144531 -158.5 28
  endloop
endfacet
facet normal -1 1.13866149408473e-16 0
  outer loop
    vertex -274.5300598144531 -158.5 0
    vertex -274.5300598144531 158.5 28
    vertex -274.5300598144531 158.5 0
  endloop
endfacet
facet normal 0.5 0.8660253882408142 0
  outer loop
    vertex 0 317 28
    vertex 274.5300598144531 158.5 0
    vertex 0 317 0
  endloop
endfacet
facet normal 0.5 0.8660253882408142 0
  outer loop
    vertex 274.5300598144531 158.5 0
    vertex 0 317 28
    vertex 274.5300598144531 158.5 28
  endloop
endfacet
facet normal -0.5 0.8660253882408142 0
  outer loop
    vertex -274.5300598144531 158.5 28
    vertex 0 317 0
    vertex -274.5300598144531 158.5 0
  endloop
endfacet
facet normal -0.5 0.8660253882408142 0
  outer loop
    vertex 0 317 0
    vertex -274.5300598144531 158.5 28
    vertex 0 317 28
  endloop
endfacet
facet normal 1 -5.693307602772546e-16 0
  outer loop
    vertex 274.5300598144531 158.5 0
    vertex 274.5300598144531 -158.5 28
    vertex 274.5300598144531 -158.5 0
  endloop
endfacet
facet normal 1 -5.693307602772546e-16 0
  outer loop
    vertex 274.5300598144531 -158.5 28
    vertex 274.5300598144531 158.5 0
    vertex 274.5300598144531 158.5 28
  endloop
endfacet
facet normal 0.4866356551647186 0.8736050128936768 0
  outer loop
    vertex -153.7714233398438 -203.28076171875 28
    vertex -97.66948699951172 -234.5319671630859 -218
    vertex -153.7714233398438 -203.28076171875 -218
  endloop
endfacet
facet normal 0.4866356551647186 0.8736050128936768 0
  outer loop
    vertex -97.66948699951172 -234.5319671630859 -218
    vertex -153.7714233398438 -203.28076171875 28
    vertex -97.66948699951172 -234.5319671630859 28
  endloop
endfacet
facet normal 0.2439483255147934 0.9697882533073425 0
  outer loop
    vertex -97.66948699951172 -234.5319671630859 28
    vertex -35.39076232910156 -250.1980590820313 -218
    vertex -97.66948699951172 -234.5319671630859 -218
  endloop
endfacet
facet normal 0.2439483255147934 0.9697882533073425 0
  outer loop
    vertex -35.39076232910156 -250.1980590820313 -218
    vertex -97.66948699951172 -234.5319671630859 28
    vertex -35.39076232910156 -250.1980590820313 28
  endloop
endfacet
facet normal -0.2736286818981171 0.9618353843688965 0
  outer loop
    vertex 28.82054328918457 -249.21142578125 28
    vertex 90.58853912353516 -231.6392974853516 -218
    vertex 28.82054328918457 -249.21142578125 -218
  endloop
endfacet
facet normal -0.2736286818981171 0.9618353843688965 0
  outer loop
    vertex 90.58853912353516 -231.6392974853516 -218
    vertex 28.82054328918457 -249.21142578125 28
    vertex 90.58853912353516 -231.6392974853516 28
  endloop
endfacet
facet normal -0.01536367554217577 0.9998819828033447 0
  outer loop
    vertex -35.39076232910156 -250.1980590820313 28
    vertex 28.82054328918457 -249.21142578125 -218
    vertex -35.39076232910156 -250.1980590820313 -218
  endloop
endfacet
facet normal -0.01536367554217577 0.9998819828033447 0
  outer loop
    vertex 28.82054328918457 -249.21142578125 -218
    vertex -35.39076232910156 -250.1980590820313 28
    vertex 28.82054328918457 -249.21142578125 28
  endloop
endfacet
endsolid 468B
